<svg viewBox="0 0 464 464.00001" xmlns="http://www.w3.org/2000/svg"><path d="m272 357.503906c.003906-25.128906-20.367188-45.503906-45.496094-45.503906h-42.503906c0 13.253906-10.746094 24-24 24h-48c-13.253906 0-24-10.746094-24-24h-42.496094c-25.132812-.003906-45.50781225 20.371094-45.503906 45.503906v106.496094h272zm0 0" fill="#d9d9d9"/><path d="m170.910156 367.273438c-6.34375-4.230469-14.789062-3.390626-20.183594 2l-3.414062 3.414062c-6.246094 6.25-6.246094 16.375 0 22.625l36.6875 36.6875 36.6875-36.6875c6.246094-6.25 6.246094-16.375 0-22.625l-3.414062-3.414062c-5.394532-5.390626-13.839844-6.230469-20.183594-2l-13.089844 8.726562zm0 0" fill="#1cc8eb"/><path d="m96 264v40c0 4.417969-3.582031 8-8 8 0 13.253906 10.746094 24 24 24h48c13.253906 0 24-10.746094 24-24-4.417969 0-8-3.582031-8-8v-40c26.535156-11.148438 47.292969-32.757812 57.367188-59.71875-22.800782-30.335938-30.769532-69.308594-21.710938-106.160156-7.125-1.332032-14.351562-2.035156-21.601562-2.105469-21.070313-.023437-41.816407 5.179687-60.382813 15.144531 1.585937-5.3125 3.675781-10.460937 6.230469-15.375l-15.902344-31.785156-32 32-56 16v56c0 41.984375 25.246094 79.851562 64 96zm0 0" fill="#fff5e0"/><path d="m120 64 15.886719 31.769531c18.34375-36.078125 59.066406-54.828125 98.402343-45.3125 1.03125-1.34375 2.109376-2.640625 3.199219-3.945312-7.808593-27.496094-32.90625-46.4765628-61.488281-46.511719h-80c-35.347656 0-64 28.652344-64 64v48l56-16zm0 0" fill="#a3771d"/><path d="m336 0c-38.128906 0-74.257812 17.0625-98.480469 46.511719-1.078125 1.304687-2.160156 2.601562-3.199219 3.945312-39.335937-9.515625-80.058593 9.234375-98.398437 45.3125l.078125.230469-.113281-.230469c-2.558594 4.914063-4.644531 10.0625-6.230469 15.375 18.566406-9.964843 39.3125-15.167969 60.382812-15.144531 7.25.070312 14.476563.773438 21.601563 2.105469-9.058594 36.851562-1.089844 75.824219 21.710937 106.160156 35.933594 48.347656 100.730469 65.082031 155.582032 40.175781 54.855468-24.902344 84.902344-84.699218 72.152344-143.578125-12.75-58.875-64.84375-100.8828122-125.085938-100.863281zm0 0" fill="#74d5e8"/><path d="m296 104-8 112h96l-8-112zm0 0" fill="#ffb41f"/><path d="m112 336h48c13.253906 0 24-10.746094 24-24-4.417969 0-8-3.582031-8-8v-40l-83.136719 62.398438c4.511719 6.039062 11.601563 9.59375 19.136719 9.601562zm0 0" fill="#faf0dc"/><path d="m336 56c-17.671875 0-32 14.328125-32 32v16h16v-16c0-8.835938 7.164062-16 16-16s16 7.164062 16 16v16h16v-16c0-17.671875-14.328125-32-32-32zm0 0" fill="#a3771d"/><g fill="#fff5e0"><path d="m280 48h-16v8h-8v16h8v8h16v-8h8v-16h-8zm0 0"/><path d="m440 112h-8v-8h-16v8h-8v16h8v8h16v-8h8zm0 0"/><path d="m384 64h16v16h-16zm0 0"/><path d="m328 24h16v16h-16zm0 0"/></g><path d="m96 152c4.417969 0 8 3.582031 8 8s-3.582031 8-8 8-8-3.582031-8-8 3.582031-8 8-8zm0 0" fill="#594110"/><path d="m176 152c4.417969 0 8 3.582031 8 8s-3.582031 8-8 8-8-3.582031-8-8 3.582031-8 8-8zm0 0" fill="#594110"/><path d="m120 208h32v8c0 8.835938-7.164062 16-16 16s-16-7.164062-16-16zm0 0" fill="#ffae82"/></svg>