<svg viewBox="0 0 480 480" xmlns="http://www.w3.org/2000/svg"><path d="m24 40h432v304h-432zm0 0" fill="#b8b8b8"/><path d="m56 72h368v160h-368zm0 0" fill="#d9d9d9"/><path d="m0 0h480v40h-480zm0 0" fill="#8c8c8c"/><path d="m0 344v32h224v104h32v-104h224v-32zm0 0" fill="#8c8c8c"/><path d="m224 376h32v8h-32zm0 0" fill="#787878"/><path d="m408 304v-4.183594c29.566406-10.421875 48.984375-38.785156 48-70.121094-.054688-1.917968.089844-3.808593-.128906-5.695312h-95.871094c-16.109375 0-31.621094-6.097656-43.414062-17.070312-6.792969 18.0625-6.015626 38.097656 2.15625 55.578124 8.171874 17.484376 23.042968 30.933594 41.257812 37.308594v4.183594c0 17.671875-14.328125 32-32 32l48 8h16l48-8c-17.671875 0-32-14.328125-32-32zm0 0" fill="#fff5e0"/><path d="m360 448 24 24 24-24-16-104h-16zm0 0" fill="#1cc8eb"/><path d="m455.832031 224c.039063-16.957031-6.667969-33.230469-18.644531-45.238281-11.972656-12.003907-28.230469-18.753907-45.1875-18.761719h-96c-.003906 17.832031 7.460938 34.851562 20.585938 46.929688 11.792968 10.972656 27.304687 17.070312 43.414062 17.070312zm0 0" fill="#a3771d"/><path d="m440 336-48 8 16 104-24 24-24-24 16-104-48-8c-17.671875 0-32 14.328125-32 32v112h176v-112c0-17.671875-14.328125-32-32-32zm0 0" fill="#74d5e8"/><path d="m317.824219 97.527344-84.0625 61.136718-43.648438-21.824218c-3.082031-1.542969-6.808593-.933594-9.242187 1.503906l-44.503906 44.503906-67.304688-22.441406-5.0625 15.1875 72 24c.816406.265625 1.667969.40625 2.527344.40625 2.121094 0 4.15625-.84375 5.65625-2.34375l43.929687-43.921875 42.839844 21.464844c2.671875 1.339843 5.871094 1.074219 8.285156-.6875l85.898438-62.511719h29.390625v-16h-32c-1.6875 0-3.335938.535156-4.703125 1.527344zm0 0" fill="#1cc8eb"/><path d="m269.65625 290.34375-40-40c-3.125-3.121094-8.1875-3.121094-11.3125 0l-40 40c-2.285156 2.289062-2.972656 5.730469-1.734375 8.71875s4.15625 4.9375 7.390625 4.9375h16v16c0 4.417969 3.582031 8 8 8h32c4.417969 0 8-3.582031 8-8v-16h16c3.234375 0 6.152344-1.949219 7.390625-4.9375s.550781-6.429688-1.734375-8.71875zm0 0" fill="#ebe023"/><path d="m167.390625 276.9375c-1.238281-2.988281-4.15625-4.9375-7.390625-4.9375h-16v-16c0-4.417969-3.582031-8-8-8h-32c-4.417969 0-8 3.582031-8 8v16h-16c-3.234375 0-6.152344 1.949219-7.390625 4.9375s-.550781 6.429688 1.734375 8.71875l40 40c3.125 3.121094 8.1875 3.121094 11.3125 0l40-40c2.289062-2.289062 2.972656-5.730469 1.734375-8.71875zm0 0" fill="#ffb41f"/><path d="m168 128h16v-8h8v-16h-8v-8h-16v8h-8v16h8zm0 0" fill="#1cc8eb"/><path d="m416 384h16c4.417969 0 8 3.582031 8 8s-3.582031 8-8 8h-16c-4.417969 0-8-3.582031-8-8s3.582031-8 8-8zm0 0" fill="#d9d9d9"/><path d="m392 88h-16v8h-8v16h8v8h16v-8h8v-16h-8zm0 0" fill="#1cc8eb"/></svg>