<svg viewBox="0 -2 475.43829 475" xmlns="http://www.w3.org/2000/svg"><path d="m428.277344 176.21875c0 22.089844-17.90625 40-40 40-22.089844 0-40-17.910156-40-40s17.910156-40 40-40c22.09375 0 40 17.910156 40 40zm0 0" fill="#1cc8eb"/><path d="m380.277344 40.21875c0 22.089844-17.90625 40-40 40-22.089844 0-40-17.910156-40-40s17.910156-40 40-40c22.09375 0 40 17.910156 40 40zm0 0" fill="#1cc8eb"/><path d="m148.277344 112.21875c0 39.765625-32.234375 72-72 72-39.761719 0-72-32.234375-72-72s32.238281-72 72-72c39.765625 0 72 32.234375 72 72zm0 0" fill="#1cc8eb"/><path d="m220.277344 24.21875c0 13.253906-10.746094 24-24 24s-24-10.746094-24-24 10.746094-24 24-24 24 10.746094 24 24zm0 0" fill="#1cc8eb"/><path d="m76.277344 176.21875c-38.1875-.015625-69.710938-29.867188-71.800782-68-.070312 1.335938-.199218 2.648438-.199218 4 0 39.765625 32.238281 72 72 72 39.765625 0 72-32.234375 72-72 0-1.351562-.128906-2.664062-.199219-4-2.089844 38.132812-33.609375 67.984375-71.800781 68zm0 0" fill="#1ab6d6"/><path d="m340.277344 72.21875c-20.488282-.042969-37.609375-15.605469-39.597656-36-.128907 1.335938-.402344 2.632812-.402344 4 0 22.089844 17.910156 40 40 40 22.09375 0 40-17.910156 40-40 0-1.367188-.269532-2.664062-.398438-4-1.992187 20.394531-19.113281 35.957031-39.601562 36zm0 0" fill="#1ab6d6"/><path d="m388.277344 208.21875c-20.488282-.042969-37.609375-15.605469-39.597656-36-.128907 1.335938-.402344 2.632812-.402344 4 0 22.089844 17.910156 40 40 40 22.09375 0 40-17.910156 40-40 0-1.367188-.269532-2.664062-.398438-4-1.992187 20.394531-19.113281 35.957031-39.601562 36zm0 0" fill="#1ab6d6"/><path d="m196.277344 40.21875c-11.6875-.03125-21.652344-8.476562-23.597656-20-.246094 1.320312-.378907 2.660156-.402344 4 0 13.253906 10.746094 24 24 24s24-10.746094 24-24c-.023438-1.339844-.15625-2.679688-.398438-4-1.949218 11.523438-11.914062 19.96875-23.601562 20zm0 0" fill="#1ab6d6"/><path d="m268.277344 320.21875-16-40h16zm0 0" fill="#a8a8a8"/><path d="m268.277344 424.21875h-16l16-32zm0 0" fill="#a8a8a8"/><path d="m453.117188 315.796875 14.320312-7.152344 8 16zm0 0" fill="#a8a8a8"/><path d="m467.4375 395.796875-14.320312-7.152344 22.320312-8.847656zm0 0" fill="#a8a8a8"/><path d="m199.589844 352.21875 73.535156-73.535156c3.125-3.125 3.125-8.1875 0-11.3125-30.253906-30.28125-74.359375-42.132813-115.71875-31.09375-41.355469 11.035156-73.691406 43.285156-84.839844 84.613281-8.695312-10.113281-21.214844-16.144531-34.539062-16.640625-13.328125-.496094-26.261719 4.585938-35.683594 14.023438-3.125 3.125-3.125 8.191406 0 11.3125l22.621094 22.632812-22.621094 22.632812c-3.125 3.125-3.125 8.1875 0 11.3125 9.421875 9.4375 22.355469 14.519532 35.683594 14.023438 13.324218-.496094 25.84375-6.527344 34.539062-16.640625 11.148438 41.328125 43.484375 73.578125 84.839844 84.617187 41.359375 11.035157 85.464844-.816406 115.71875-31.097656 3.125-3.125 3.125-8.1875 0-11.3125zm0 0" fill="#ffb41f"/><path d="m431.589844 352.21875 39.601562-39.597656c3.121094-3.125 3.121094-8.191406 0-11.3125-17.402344-17.417969-42.507812-24.726563-66.535156-19.363282-24.03125 5.359376-43.652344 22.640626-52.003906 45.800782-12.613282-10.707032-31.347656-9.902344-43 1.847656-3.121094 3.125-3.121094 8.1875 0 11.3125l11.3125 11.3125-11.3125 11.3125c-3.121094 3.125-3.121094 8.1875 0 11.3125 11.652344 11.75 30.386718 12.558594 43 1.847656 8.351562 23.160156 27.972656 40.441406 52.003906 45.804688 24.027344 5.359375 49.132812-1.945313 66.535156-19.363282 3.121094-3.125 3.121094-8.191406 0-11.3125zm0 0" fill="#f0be59"/><path d="m420.277344 304.21875c4.417968 0 8 3.582031 8 8s-3.582032 8-8 8c-4.417969 0-8-3.582031-8-8s3.582031-8 8-8zm0 0" fill="#8c8c8c"/><path d="m204.277344 280.21875c4.417968 0 8 3.582031 8 8s-3.582032 8-8 8c-4.417969 0-8-3.582031-8-8s3.582031-8 8-8zm0 0" fill="#8c8c8c"/><g fill="#acdee8"><path d="m76.277344 88.21875h24v-16h-16v-8h-16v9.472656c-11.011719 3.878906-17.621094 15.132813-15.640625 26.640625 1.976562 11.507813 11.964843 19.910157 23.640625 19.886719 4.417968 0 8 3.582031 8 8s-3.582032 8-8 8h-24v16h16v8h16v-9.472656c11.011718-3.878906 17.621094-15.132813 15.644531-26.640625-1.980469-11.507813-11.96875-19.910157-23.644531-19.886719-4.417969 0-8-3.582031-8-8s3.582031-8 8-8zm0 0"/><path d="m244.277344 197.449219c-11.539063.015625-22.769532-3.726563-32-10.652344-21.214844 15.898437-50.886719 13.800781-69.65625-4.921875l11.3125-11.3125c14.5625 14.519531 38.125 14.519531 52.6875 0 3.125-3.121094 8.1875-3.121094 11.3125 0 14.5625 14.519531 38.125 14.519531 52.6875 0l11.3125 11.3125c-9.980469 9.996094-23.53125 15.601562-37.65625 15.574219zm0 0"/><path d="m436.277344 125.449219c-11.539063.015625-22.769532-3.726563-32-10.652344-21.214844 15.894531-50.882813 13.796875-69.65625-4.921875l11.3125-11.3125c14.5625 14.519531 38.125 14.519531 52.6875 0 3.125-3.121094 8.1875-3.121094 11.3125 0 14.5625 14.519531 38.125 14.519531 52.6875 0l11.3125 11.3125c-9.980469 9.996094-23.53125 15.601562-37.65625 15.574219zm0 0"/><path d="m400.277344 184.21875c0-6.628906-5.371094-12-12-12-2.207032 0-4-1.789062-4-4 0-2.207031 1.792968-4 4-4h8v-8h-4v-4h-8v4.738281c-5.4375 1.996094-8.671875 7.589844-7.691406 13.296875.984374 5.707032 5.902343 9.898438 11.691406 9.964844 2.210937 0 4 1.792969 4 4 0 2.210938-1.789063 4-4 4h-8v8h4v4h8v-4.734375c4.777344-1.691406 7.980468-6.199219 8-11.265625zm0 0"/><path d="m352.277344 48.21875c0-6.628906-5.371094-12-12-12-2.207032 0-4-1.789062-4-4 0-2.207031 1.792968-4 4-4h8v-8h-4v-4h-8v4.738281c-5.4375 1.996094-8.671875 7.589844-7.691406 13.296875.984374 5.707032 5.902343 9.898438 11.691406 9.964844 2.210937 0 4 1.792969 4 4 0 2.210938-1.789063 4-4 4h-8v8h4v4h8v-4.734375c4.777344-1.691406 7.980468-6.199219 8-11.265625zm0 0"/></g><path d="m471.191406 395.132812c-17.398437 17.417969-42.496094 24.730469-66.523437 19.378907-24.03125-5.351563-43.652344-22.625-52.015625-45.78125-12.613282 10.710937-31.347656 9.90625-43-1.847657-.4375-.503906-.808594-1.058593-1.101563-1.65625-1.898437 3.089844-1.441406 7.074219 1.101563 9.65625 11.652344 11.753907 30.386718 12.558594 43 1.847657 8.351562 23.164062 27.972656 40.445312 52.003906 45.804687 24.027344 5.359375 49.132812-1.945312 66.535156-19.363281 1.5-1.5 2.34375-3.535156 2.34375-5.65625-.042968-1.421875-.46875-2.800781-1.234375-4-.304687.582031-.675781 1.125-1.109375 1.617187zm0 0" fill="#edb139"/><path d="m316.964844 348.21875 4-4-11.3125-11.3125c-.4375-.5-.808594-1.058594-1.101563-1.65625-1.894531 3.089844-1.4375 7.074219 1.101563 9.65625zm0 0" fill="#edb139"/><path d="m471.191406 304.621094-39.601562 39.597656 4 4 35.601562-35.597656c2.640625-2.535156 3.109375-6.589844 1.109375-9.65625-.296875.59375-.671875 1.152344-1.109375 1.65625zm0 0" fill="#edb139"/><path d="m20.964844 348.21875 4-4-22.621094-22.632812c-.4375-.5-.808594-1.058594-1.105469-1.65625-1.898437 3.089843-1.441406 7.074218 1.105469 9.65625zm0 0" fill="#e0a222"/><path d="m273.125 270.683594-73.535156 73.535156 4 4 69.535156-69.535156c2.542969-2.582032 3-6.566406 1.105469-9.65625-.292969.597656-.664063 1.15625-1.105469 1.65625zm0 0" fill="#e0a222"/><path d="m273.125 429.066406c-30.253906 30.28125-74.359375 42.132813-115.71875 31.097656-41.355469-11.039062-73.691406-43.289062-84.839844-84.617187-8.695312 10.113281-21.214844 16.144531-34.539062 16.640625-13.328125.496094-26.261719-4.585938-35.683594-14.023438-.4375-.503906-.808594-1.058593-1.105469-1.65625-1.894531 3.089844-1.4375 7.074219 1.105469 9.65625 9.421875 9.4375 22.355469 14.519532 35.683594 14.023438 13.324218-.496094 25.84375-6.527344 34.539062-16.640625 11.148438 41.328125 43.484375 73.578125 84.839844 84.617187 41.359375 11.035157 85.464844-.816406 115.71875-31.097656 2.546875-2.582031 3.003906-6.566406 1.105469-9.65625-.289063.601563-.664063 1.15625-1.105469 1.65625zm0 0" fill="#e0a222"/></svg>