<svg viewBox="0 -16 472 472" xmlns="http://www.w3.org/2000/svg"><path d="m40 0h400c17.671875 0 32 14.328125 32 32v272c0 17.671875-14.328125 32-32 32h-400c-17.671875 0-32-14.328125-32-32v-272c0-17.671875 14.328125-32 32-32zm0 0" fill="#1cc8eb"/><path d="m40 32h368v272h-368zm0 0" fill="#74d5e8"/><path d="m88 408-32 16 32 16h328v-32zm0 0" fill="#1cc8eb"/><path d="m456 408h-40v32h40c8.835938 0 16-7.164062 16-16s-7.164062-16-16-16zm0 0" fill="#74d5e8"/><path d="m72 160h64v32h-64zm0 0" fill="#ebebeb"/><path d="m192 160h64v32h-64zm0 0" fill="#ebebeb"/><path d="m192 232h64v32h-64zm0 0" fill="#ebebeb"/><path d="m304 208h64v32h-64zm0 0" fill="#ffb41f"/><path d="m440 128c4.417969 0 8 3.582031 8 8v64c0 4.417969-3.582031 8-8 8s-8-3.582031-8-8v-64c0-4.417969 3.582031-8 8-8zm0 0" fill="#74d5e8"/><g fill="#ffb41f"><path d="m0 424c0 4.417969 3.582031 8 8 8h8v-16h-16zm0 0"/><path d="m149.167969 360h15.640625v16h-15.640625zm0 0"/><path d="m117.894531 360h15.640625v16h-15.640625zm0 0"/><path d="m180.449219 360h15.640625v16h-15.640625zm0 0"/><path d="m211.71875 360h15.640625v16h-15.640625zm0 0"/><path d="m86.625 360h15.640625v16h-15.640625zm0 0"/><path d="m20.976562 368.328125 9.015626 13.214844c3.449218-2.363281 7.332031-4.019531 11.421874-4.871094l-3.277343-15.664063c-6.148438 1.285157-11.976563 3.773438-17.160157 7.320313zm0 0"/><path d="m.855469 398.878906 15.71875 3.023438c.78125-4.105469 2.375-8.015625 4.683593-11.503906l-13.347656-8.796876c-3.464844 5.238282-5.863281 11.109376-7.054687 17.277344zm0 0"/><path d="m55.351562 360h15.632813v16h-15.632813zm0 0"/><path d="m330.59375 354.046875 9.308594 13.015625c5.117187-3.648438 9.464844-8.269531 12.800781-13.597656l-13.542969-8.511719c-2.234375 3.5625-5.144531 6.652344-8.566406 9.09375zm0 0"/><path d="m312 360h-6.457031v16h6.457031c3.671875.003906 7.335938-.414062 10.910156-1.246094l-3.621094-15.554687c-2.390624.542969-4.835937.8125-7.289062.800781zm0 0"/><path d="m344 287.847656h16v15.640625h-16zm0 0"/><path d="m344 328c0 1.8125-.152344 3.621094-.457031 5.40625l15.785156 2.648438c.445313-2.660157.671875-5.355469.671875-8.054688v-8.871094h-16zm0 0"/><path d="m274.273438 360h15.628906v16h-15.628906zm0 0"/><path d="m243 360h15.632812v16h-15.632812zm0 0"/></g><path d="m224 120h-48v-24h32v-32h-80v32h32v24h-56c-4.417969 0-8 3.582031-8 8v32h16v-24h104v24h16v-32c0-4.417969-3.582031-8-8-8zm0 0" fill="#8c8c8c"/><path d="m216 192h16v40h-16zm0 0" fill="#8c8c8c"/><path d="m336 168h-80v16h72v24h16v-32c0-4.417969-3.582031-8-8-8zm0 0" fill="#8c8c8c"/><path d="m344 256h16v16h-16zm0 0" fill="#ffb41f"/><path d="m56 424 32 16h368c8.835938 0 16-7.164062 16-16 0-.34375-.078125-.664062-.105469-1h-413.894531zm0 0" fill="#19b4d4"/></svg>