<svg viewBox="0 0 464 464.03177" xmlns="http://www.w3.org/2000/svg"><path d="m168.015625 64.03125h272c13.253906 0 24 10.746094 24 24v352c0 13.253906-10.746094 24-24 24h-272c-13.253906 0-24-10.746094-24-24v-352c0-13.253906 10.746094-24 24-24zm0 0" fill="#ebebeb"/><path d="m176.015625 72.03125h256v368h-256zm0 0" fill="#d9d9d9"/><path d="m407.726562 75.589844-7.710937-11.558594-11.296875-16.945312c-2.9375-4.40625-7.886719-7.054688-13.183594-7.054688h-17.976562c-7.179688-.144531-13.414063-4.980469-15.34375-11.894531-5.195313-16.734375-20.679688-28.136719-38.199219-28.136719s-33.003906 11.402344-38.199219 28.136719c-1.929687 6.914062-8.164062 11.75-15.34375 11.894531h-17.976562c-5.296875 0-10.246094 2.648438-13.183594 7.054688l-11.296875 16.945312-7.710937 11.558594c-1.640626 2.457031-1.792969 5.617187-.398438 8.21875 1.394531 2.601562 4.109375 4.226562 7.0625 4.222656h194.09375c2.953125.003906 5.667969-1.621094 7.0625-4.222656 1.394531-2.601563 1.242188-5.761719-.398438-8.21875zm0 0" fill="#8c8c8c"/><path d="m400.015625 160.03125c0 22.09375-17.910156 40-40 40s-40-17.90625-40-40c0-22.089844 17.910156-40 40-40s40 17.910156 40 40zm0 0" fill="#8c8c8c"/><path d="m304.015625 24.03125c4.417969 0 8 3.582031 8 8s-3.582031 8-8 8-8-3.582031-8-8 3.582031-8 8-8zm0 0" fill="#ebebeb"/><path d="m221.671875 237.6875 18.34375-18.34375 18.335937 18.34375 11.320313-11.3125-18.34375-18.34375 18.34375-18.335938-11.320313-11.320312-18.335937 18.34375-18.34375-18.34375-11.3125 11.3125 18.34375 18.34375-18.351563 18.335938zm0 0" fill="#8c8c8c"/><path d="m346.359375 338.375-18.34375 18.34375-18.335937-18.34375-11.320313 11.3125 18.34375 18.34375-18.34375 18.335938 11.3125 11.320312 18.34375-18.34375 18.335937 18.34375 11.320313-11.3125-18.34375-18.34375 18.34375-18.335938zm0 0" fill="#8c8c8c"/><path d="m354.359375 218.375-32 32 11.3125 11.3125 18.34375-18.34375v16.6875c-.023437 19.875-16.125 35.976562-36 36-28.703125.035156-51.964844 23.296875-52 52v8c-.023437 19.875-16.125 35.976562-36 36h-20v16h20c28.703125-.035156 51.964844-23.296875 52-52v-8c.023437-19.871094 16.128906-35.976562 36-36 28.703125-.035156 51.964844-23.296875 52-52v-16.6875l18.34375 18.34375 11.3125-11.3125-32-32c-3.125-3.121094-8.1875-3.121094-11.3125 0zm0 0" fill="#ffb41f"/><path d="m360.015625 176.03125c2.121094 0 4.15625-.84375 5.65625-2.34375l48-48-11.3125-11.3125-42.34375 42.34375-10.34375-10.34375-11.3125 11.3125 16 16c1.5 1.5 3.535156 2.34375 5.65625 2.34375zm0 0" fill="#ffb41f"/><path d="m.015625 432.03125h176v32h-176zm0 0" fill="#8c8c8c"/><path d="m96.015625 280.03125 48-8c-17.671875 0-32-14.328125-32-32v-4.183594c29.566406-10.421875 48.984375-38.785156 48-70.121094-.054687-1.917968.089844-3.808593-.128906-5.695312h-95.871094c-16.109375 0-31.621094-6.097656-43.414063-17.070312-6.792968 18.0625-6.015624 38.097656 2.15625 55.582031 8.171876 17.480469 23.046876 30.929687 41.257813 37.304687v4.183594c0 17.671875-14.328125 32-32 32l48 8zm0 0" fill="#fff5e0"/><path d="m144.015625 272.03125-48 8 16 104-24 24-24-24 16-104-48-8c-17.671875 0-32 14.328125-32 32v128h176v-128c0-17.671875-14.328125-32-32-32zm0 0" fill="#74d5e8"/><path d="m128.015625 320.03125h24c4.417969 0 8 3.582031 8 8s-3.582031 8-8 8h-24c-4.417969 0-8-3.582031-8-8s3.582031-8 8-8zm0 0" fill="#d9d9d9"/><path d="m64.015625 384.03125 24 24 24-24-16-104h-16zm0 0" fill="#1cc8eb"/><path d="m159.847656 160.03125c.039063-16.957031-6.667968-33.230469-18.644531-45.238281-11.972656-12.003907-28.230469-18.753907-45.1875-18.761719h-96c-.0039062 17.832031 7.460937 34.851562 20.585937 46.929688 11.792969 10.972656 27.304688 17.070312 43.414063 17.070312zm0 0" fill="#a3771d"/></svg>